<?xml version="1.0" encoding="UTF-8" standalone="no"?>
<svg
   xmlns:dc="http://purl.org/dc/elements/1.1/"
   xmlns:cc="http://creativecommons.org/ns#"
   xmlns:rdf="http://www.w3.org/1999/02/22-rdf-syntax-ns#"
   xmlns:svg="http://www.w3.org/2000/svg"
   xmlns="http://www.w3.org/2000/svg"
   xmlns:sodipodi="http://sodipodi.sourceforge.net/DTD/sodipodi-0.dtd"
   xmlns:inkscape="http://www.inkscape.org/namespaces/inkscape"
   inkscape:version="1.0 (4035a4fb49, 2020-05-01)"
   sodipodi:docname="minas.svg"
   id="svg2056"
   version="1.1"
   viewBox="0 0 177.90179 137.04292"
   height="5.3953905in"
   width="7.0040078in">
  <defs
     id="defs2050" />
  <sodipodi:namedview
     units="in"
     inkscape:pagecheckerboard="false"
     showborder="true"
     lock-margins="true"
     fit-margin-bottom="0"
     fit-margin-right="0"
     fit-margin-left="0"
     fit-margin-top="0"
     inkscape:window-maximized="0"
     inkscape:window-y="0"
     inkscape:window-x="0"
     inkscape:window-height="728"
     inkscape:window-width="1350"
     showgrid="false"
     inkscape:document-rotation="0"
     inkscape:current-layer="layer1"
     inkscape:document-units="mm"
     inkscape:cy="528.29392"
     inkscape:cx="160.98719"
     inkscape:zoom="0.35"
     inkscape:pageshadow="2"
     inkscape:pageopacity="0.0"
     borderopacity="1.0"
     bordercolor="#666666"
     pagecolor="#ffffff"
     id="base" />
  <metadata
     id="metadata2053">
    <rdf:RDF>
      <cc:Work
         rdf:about="">
        <dc:format>image/svg+xml</dc:format>
        <dc:type
           rdf:resource="http://purl.org/dc/dcmitype/StillImage" />
        <dc:title></dc:title>
      </cc:Work>
    </rdf:RDF>
  </metadata>
  <g
     transform="translate(-14.889332,-8.3889005)"
     id="layer1"
     inkscape:groupmode="layer"
     inkscape:label="Layer 1">
    <g
       id="g5404">
      <path
         id="triangulo-mineiro"
         d="m 48.350796,104.94867 c -0.15674,-3.32012 -1.63812,-4.1599 -3.25957,-1.84781 -0.8134,1.15984 -1.03697,1.22292 -1.59386,0.44969 -0.35626,-0.49466 -0.52203,-1.76394 -0.36836,-2.82062 0.25441,-1.749515 0.13578,-1.923235 -1.32734,-1.943675 -1.84263,-0.0257 -11.62341,-1.03195 -13.97375,-1.43757 -0.8659,-0.14943 -2.12986,-0.56899 -2.80881,-0.93235 -1.35929,-0.72748 -4.31092,0.0417 -4.31092,1.12345 0,0.33793 -0.41812,0.61443 -0.92916,0.61443 -0.51104,0 -1.72522,0.41165 -2.69817,0.91479 -1.70831,0.8834 -1.76928,0.86797 -1.77719,-0.4497 -0.005,-0.75046 -0.16036,-1.93134 -0.34635,-2.62417 -0.19928,-0.74234 0.0503,-1.6482 0.60778,-2.20565 0.52027,-0.52027 0.94595,-1.22656 0.94595,-1.56955 0,-0.34298 0.42809,-0.45932 0.95132,-0.25854 0.7031,0.2698 0.89866,0.0539 0.74949,-0.82731 -0.29565,-1.74661 1.30404,-4.351 2.92192,-4.75707 1.37306,-0.34461 2.97803,-2.40722 2.35664,-3.0286 -0.17208,-0.17209 0.34569,-1.02313 1.15061,-1.8912 0.80492,-0.86807 1.46349,-1.7534 1.46349,-1.9674 0,-0.54575 3.91307,-1.28996 7.61811,-1.44885 1.93195,-0.0829 3.49265,-0.50533 4.09613,-1.10881 0.90022,-0.90022 1.05966,-0.87108 2.07975,0.38018 l 1.10479,1.35514 1.8474,-2.06015 c 1.01607,-1.13309 2.43937,-2.10377 3.1629,-2.15707 0.72353,-0.0533 1.41916,-0.40787 1.54584,-0.78791 0.28302,-0.84906 1.75471,-0.91459 2.02945,-0.0904 0.13211,0.39633 0.88896,0.4031 2.22513,0.0199 1.1137,-0.3194 2.46263,-0.37476 2.99761,-0.12301 0.53499,0.25175 1.88099,0.39995 2.99113,0.32933 1.11013,-0.0706 2.93391,0.38579 4.05285,1.01426 1.9151,1.07565 2.17571,1.08614 4.44331,0.17883 1.32488,-0.53012 2.7389,-1.41097 3.14225,-1.95744 0.40336,-0.54648 2.1407,-2.01449 3.86077,-3.26225 l 3.12738,-2.26865 0.38433,1.53127 c 0.30553,1.21734 1.56969,2.1022 6.16629,4.3162 3.18008,1.53172 5.95535,3.0539 6.16727,3.38262 0.25183,0.39063 0.97879,0.39781 2.09857,0.0207 0.9423,-0.31732 2.38781,-0.38071 3.21225,-0.14087 2.51031,0.73029 4.19714,0.61468 4.19714,-0.28764 0,-0.54806 0.4198,-0.73348 1.19919,-0.52967 1.291614,0.33777 1.605774,1.65046 0.551014,2.30233 -0.3565,0.22033 -0.484894,1.05119 -0.28531,1.84636 0.2379,0.94787 -0.344704,3.1451 -1.691714,6.38021 -1.13002,2.71394 -2.21716,5.43223 -2.41589,6.04065 -0.19871,0.60841 -0.87463,1.24045 -1.50202,1.40451 -0.6274,0.16407 -1.27561,0.81411 -1.44048,1.44453 -0.18458,0.70586 -0.63689,1.01685 -1.1773,0.80948 -0.48266,-0.18522 -1.28548,0.0711 -1.78403,0.56971 -0.49856,0.49856 -1.67699,0.85135 -2.61874,0.78397 -1.26711,-0.0907 -1.86792,0.22825 -2.31098,1.22659 -0.36622,0.82521 -1.12559,1.34908 -1.95552,1.34908 -0.74624,0 -1.3568,0.260335 -1.3568,0.578505 0,0.74793 -1.60779,1.55814 -3.98377,2.00753 -1.58727,0.30021 -2.22178,0.0297 -4.01491,-1.71178 -1.83398,-1.781135 -2.33939,-1.988625 -3.6398,-1.494215 -0.83055,0.31578 -1.64811,0.35082 -1.8168,0.0779 -0.53459,-0.86498 -3.33275,0.0238 -3.34248,1.061685 -0.008,0.80773 -0.10313,0.83098 -0.54518,0.13266 -0.45173,-0.713625 -0.69714,-0.685585 -1.56106,0.17834 -0.96703,0.96702 -1.091,0.96539 -2.18959,-0.0288 -0.82131,-0.74328 -1.28944,-0.851785 -1.58834,-0.36814 -0.23309,0.37715 -2.44261,0.87117 -4.91003,1.09781 -2.46742,0.22664 -4.58495,0.50072 -4.70562,0.60907 -0.12067,0.10835 -0.43033,1.0876 -0.68812,2.17611 -0.31496,1.32991 -0.48884,1.55265 -0.53009,0.67906 z"
         style="fill:#c83737;stroke-width:4.79674"
         inkscape:label="#triangulo-mineiro" />
      <path
         id="central-mineira"
         d="m 101.61275,101.01236 c -0.71779,-0.74754 -2.101744,-2.438435 -3.075444,-3.757535 -2.18434,-2.95919 -2.00567,-5.08109 1.01239,-12.02367 1.423624,-3.27482 1.864364,-4.93011 1.446694,-5.43337 -0.40317,-0.48578 -0.39395,-0.85152 0.028,-1.11232 0.34578,-0.21371 0.6287,-1.26303 0.6287,-2.33183 0,-2.10042 0.89113,-3.37664 2.36839,-3.39187 1.44656,-0.0149 4.68836,-3.18237 4.91902,-4.80622 l 0.20748,-1.46069 1.19919,1.21688 c 2.14961,2.18132 4.33479,2.79513 6.01994,1.69098 0.81123,-0.53154 1.48317,-1.27267 1.4932,-1.64697 0.01,-0.37429 0.29325,-0.20835 0.62938,0.36876 0.88061,1.51191 2.15984,1.29036 2.59656,-0.44969 0.20692,-0.82444 0.61946,-1.49898 0.91675,-1.49898 0.29729,0 0.71563,-0.79722 0.92963,-1.7716 0.21401,-0.97438 0.89619,-1.93254 1.51596,-2.12925 0.61976,-0.1967 1.29133,-0.8759 1.49237,-1.50934 0.30962,-0.97553 0.5436,-1.04049 1.52965,-0.42469 0.64027,0.39985 1.16412,1.28507 1.16412,1.96716 0,0.68208 0.39614,1.7639 0.88032,2.40403 1.21612,1.60786 1.13018,2.51486 -0.28073,2.96267 -0.65955,0.20933 -1.19918,0.7924 -1.19918,1.29572 0,0.50331 -0.53963,1.05623 -1.19919,1.22871 -0.65955,0.17248 -1.19918,0.42652 -1.19918,0.56455 0,0.84967 2.0879,3.20673 2.84054,3.20673 0.73543,0 0.76477,0.16758 0.15742,0.89939 -0.41053,0.49466 -1.10219,0.89939 -1.53701,0.89939 -1.31566,0 -1.63724,1.20976 -0.6203,2.33346 1.01343,1.11983 1.35056,3.97577 0.39996,3.38827 -0.30698,-0.18973 -0.72763,-0.0707 -0.93477,0.26441 -0.20714,0.33516 -0.83287,0.61368 -1.39051,0.61895 -0.55765,0.005 -1.91954,0.80788 -3.02643,1.78359 -1.10689,0.9757 -2.86069,1.93637 -3.89735,2.13481 -1.32386,0.25342 -2.16677,0.92323 -2.83216,2.25056 -0.66643,1.32941 -1.3776,1.89365 -2.39837,1.90286 -1.33054,0.012 -1.4357,0.22043 -1.26642,2.50995 0.15398,2.08271 -0.0201,2.5618 -1.04929,2.88846 -0.81053,0.25726 -1.23389,0.90421 -1.23389,1.88559 0,1.05156 -0.22194,1.35175 -0.74948,1.01373 -1.11154,-0.7122 -4.86661,-1.969 -5.12149,-1.71413 -0.12142,0.12142 0.2319,0.91161 0.78515,1.75598 0.90665,1.383715 0.91461,1.626525 0.0807,2.460475 -0.83394,0.83395 -1.05405,0.79113 -2.23033,-0.43391 z"
         style="fill:#008080;stroke-width:4.79674"
         inkscape:label="#central-mineira" />
      <path
         id="oeste-de-minas"
         d="m 113.04538,117.86395 c -0.82444,-0.33021 -2.10607,-0.48543 -2.84807,-0.34494 -0.74199,0.1405 -1.34908,0.0551 -1.34908,-0.18981 0,-0.24489 -1.15016,-0.73488 -2.55592,-1.08885 -2.46346,-0.62031 -4.24613,-1.85726 -5.94008,-4.12167 -1.600244,-2.13914 -4.865134,-3.92485 -7.621834,-4.1687 -1.52312,-0.13473 -3.0414,-0.60251 -3.37394,-1.03951 -0.33255,-0.437 -2.01891,-1.5112 -3.74746,-2.38713 -1.72855,-0.87592 -3.14282,-1.85785 -3.14282,-2.18208 0,-0.32422 -0.0522,-0.79185 -0.1159,-1.03918 -0.0638,-0.24733 0.66295,-0.5846 1.61488,-0.74949 0.95194,-0.16489 1.61118,-0.46069 1.46499,-0.657345 -0.66372,-0.89279 1.31857,-2.1204 3.02057,-1.8706 1.08912,0.15985 1.81016,-2.1e-4 1.81016,-0.40197 0,-0.3672 0.6998,-0.66764 1.55512,-0.66764 1.05085,0 1.6568,-0.38885 1.86871,-1.19919 0.17247,-0.65955 0.63819,-1.19918 1.03492,-1.19918 0.8125,0 3.33595,2.70294 3.33595,3.57325 0,0.94703 4.313844,4.821045 5.368394,4.821045 1.67197,0 2.40293,-1.18262 1.76616,-2.85746 -0.7394,-1.944755 -0.54078,-2.078965 1.50556,-1.017315 2.25066,1.167675 2.59829,1.114465 3.08592,-0.47228 0.22803,-0.74199 0.96148,-1.86971 1.62989,-2.50604 1.20372,-1.14594 1.2275,-1.14165 2.49639,0.4497 0.70461,0.88366 1.54354,1.60665 1.8643,1.60665 0.32076,0 1.32267,0.68568 2.22647,1.52373 1.71604,1.591205 1.72134,1.554915 -0.60624,4.150385 -1.61457,1.80039 -0.24877,4.14655 2.0621,3.54224 1.69785,-0.444 2.25062,0.68704 1.37221,2.80772 -0.53488,1.29131 -1.34474,1.92457 -3.04771,2.38313 -2.07542,0.55885 -2.24482,0.74372 -1.61119,1.75832 0.54248,0.86864 0.54361,1.49475 0.005,2.67721 -0.7725,1.69543 -0.94181,1.74237 -3.12731,0.867 z"
         style="fill:#00ffff;stroke-width:4.79674"
         inkscape:label="#oeste-de-minas" />
      <path
         id="sul"
         d="m 89.885056,144.60453 c 0.17931,-0.46727 -5e-5,-1.05909 -0.39857,-1.31514 -0.39852,-0.25606 -0.72459,-1.11551 -0.72459,-1.9099 0,-1.03184 -0.554,-1.71682 -1.93978,-2.39837 -2.34971,-1.15563 -3.00527,-2.76281 -1.71051,-4.19351 0.52511,-0.58023 0.76963,-1.24008 0.54338,-1.46633 -0.96034,-0.96035 -0.65786,-5.15682 0.46502,-6.45152 3.01319,-3.47424 -0.13306,-6.57082 -5.15281,-5.07146 -0.97397,0.29092 -1.41057,-0.12213 -2.32477,-2.19937 -0.61908,-1.40666 -1.49905,-3.34716 -1.9555,-4.31224 -0.92085,-1.94695 -0.63184,-3.65383 0.70555,-4.16703 1.30298,-0.5 1.07905,-1.27845 -0.95204,-3.30954 -1.55785,-1.55785 -1.72921,-2.0143 -1.15737,-3.0828 0.53719,-1.00374 0.84248,-1.11207 1.5288,-0.54247 0.78457,0.65113 1.1116,0.37495 0.92858,-0.7842 -0.039,-0.24733 0.70446,-0.44969 1.65225,-0.44969 1.84475,0 6.68603,2.39338 8.94961,4.42442 0.8597,0.77138 2.39213,1.30357 4.06851,1.41293 2.84447,0.18555 6.6232,2.19882 7.15108,3.81002 0.17178,0.52431 0.982404,1.31189 1.801384,1.7502 0.81897,0.4383 1.48904,1.02113 1.48904,1.29518 0,0.27405 0.30753,0.49828 0.68339,0.49828 1.29232,0 2.2364,1.94022 1.51002,3.10333 -0.53076,0.84989 -0.42616,1.24774 0.51971,1.9766 0.65133,0.5019 1.64649,0.80627 2.21147,0.67637 1.22029,-0.28057 1.96347,0.54568 2.49573,2.77467 0.37793,1.58266 0.50383,1.62873 3.88466,1.42123 1.92173,-0.11795 4.06024,-0.51746 4.75224,-0.8878 0.91169,-0.48793 1.3703,-0.49192 1.66536,-0.0145 0.22395,0.36237 1.13722,0.5517 2.02949,0.42075 2.02327,-0.29696 3.03242,0.73318 3.03242,3.09549 0,1.00324 0.26982,1.82408 0.59959,1.82408 0.32978,0 0.59959,0.26135 0.59959,0.58078 0,0.31942 -0.36993,0.43881 -0.82207,0.26531 -1.20266,-0.4615 -2.88384,1.46548 -2.45563,2.81465 0.3071,0.96759 0.0487,1.136 -1.74304,1.136 -1.15697,0 -2.25751,0.24906 -2.44564,0.55346 -0.18814,0.3044 -1.16659,0.73456 -2.17435,0.9559 -1.00776,0.22134 -2.55611,0.78007 -3.44078,1.24162 -0.88467,0.46155 -2.17919,0.84085 -2.87671,0.84288 -0.69753,0.002 -1.97059,0.55617 -2.82903,1.23143 -1.28665,1.01208 -2.17694,1.17996 -5.06834,0.95572 -3.048874,-0.23646 -3.607424,-0.11207 -4.271444,0.95119 -0.62212,0.99617 -0.61766,1.3136 0.024,1.71019 0.61811,0.38201 0.57159,0.57001 -0.21581,0.87216 -0.55208,0.21185 -1.26787,0.22197 -1.59065,0.0225 -0.32278,-0.19949 -0.74034,-0.11439 -0.92791,0.18911 -0.18758,0.30349 -1.71322,0.56244 -3.39032,0.57543 -2.39083,0.0185 -2.97887,-0.15984 -2.72325,-0.82597 z"
         style="fill:#008000;stroke-width:4.79674"
         inkscape:label="#sul" />
      <path
         id="campos-das-vertentes"
         d="m 110.87359,124.02031 c -0.42972,-2.1486 -1.63579,-3.35938 -2.87326,-2.88451 -1.13085,0.43395 -2.27313,-0.97743 -1.79645,-2.21965 0.422,-1.09971 1.77451,-1.29818 2.36256,-0.34668 0.242,0.39159 0.65109,0.42001 1.08466,0.0754 0.84615,-0.6726 3.29303,-0.33535 4.43337,0.61105 1.37041,1.13734 3.6594,-1.76859 3.30346,-4.19381 -0.232,-1.58072 -0.0821,-1.91806 0.85231,-1.91806 0.6236,0 1.74621,-0.42893 2.49468,-0.95318 1.24632,-0.87296 1.56989,-0.86955 3.8444,0.0405 1.36595,0.54655 2.80803,1.43748 3.20461,1.97984 0.51725,0.70737 0.95127,0.81421 1.53545,0.37795 0.4479,-0.33449 1.66595,-0.67926 2.70678,-0.76615 1.67267,-0.13962 1.9391,0.0547 2.2946,1.67322 0.22121,1.00715 0.65125,1.98511 0.95566,2.17325 1.16201,0.71816 0.47142,2.05273 -1.56139,3.01735 -1.68344,0.79885 -2.03684,1.24932 -1.73245,2.20835 0.33135,1.04401 0.1813,1.15433 -1.12435,0.82663 -2.21794,-0.55667 -5.35623,0.19791 -4.97331,1.19578 0.17261,0.44983 0.0525,0.81787 -0.26693,0.81787 -0.31942,0 -0.58092,-0.33727 -0.5811,-0.74949 -2.1e-4,-0.52477 -0.94407,-0.70135 -3.14786,-0.58893 -4.32982,0.22087 -7.69052,0.61239 -9.2943,1.0828 -1.15281,0.33813 -1.40425,0.12491 -1.72114,-1.45953 z"
         style="fill:#808000;stroke-width:4.79674"
         inkscape:label="#campos-das-vertentes" />
      <path
         id="regiao-metropolitana-de-bh"
         d="m 127.84398,112.91103 c -0.17572,-0.45792 -1.68091,-1.18151 -3.34487,-1.60797 -2.31199,-0.59254 -2.8782,-0.95272 -2.40121,-1.52745 0.43606,-0.52542 0.40645,-1.17021 -0.0983,-2.13949 -0.98886,-1.89912 -0.91402,-1.86081 -2.24445,-1.14879 -0.92184,0.49336 -1.36936,0.41533 -2.00002,-0.34872 -0.63557,-0.77 -0.64928,-1.03922 -0.063,-1.23655 0.41222,-0.13874 0.74949,-0.64297 0.74949,-1.1205 0,-0.47753 0.40472,-1.02355 0.89938,-1.21337 0.49467,-0.18982 0.89939,-0.73386 0.89939,-1.20899 0,-1.22527 -2.94829,-3.804575 -4.34885,-3.804575 -0.73611,0 -1.06054,-0.30029 -0.86761,-0.80306 0.17647,-0.45988 -0.43671,-1.24307 -1.43483,-1.83268 -2.09735,-1.23893 -2.5472,-4.05781 -0.56484,-3.53941 0.89907,0.23511 1.41592,-0.19049 2.18183,-1.79662 0.71642,-1.50236 1.51173,-2.20631 2.77897,-2.45976 0.97642,-0.19529 2.76022,-1.1258 3.96399,-2.0678 1.20378,-0.942 2.99544,-1.90912 3.98146,-2.14914 2.19009,-0.53313 2.72117,-1.30565 2.3102,-3.3605 -0.31413,-1.57062 -0.30422,-1.57507 2.58758,-1.1629 1.59661,0.22757 3.40624,0.62791 4.0214,0.88963 0.96752,0.41165 1.05877,0.28154 0.67611,-0.96391 -0.24331,-0.79188 -0.71094,-1.77553 -1.03919,-2.18588 -0.76255,-0.95331 1.67969,-3.10282 3.55775,-3.1313 0.8126,-0.0123 1.72123,-0.70734 2.37774,-1.81873 0.58442,-0.98932 1.25584,-1.79877 1.49206,-1.79877 0.23621,0 1.00665,0.81056 1.71209,1.80125 1.35978,1.90964 1.43814,1.76645 -1.45543,2.65948 -0.76898,0.23733 -2.19996,2.76703 -2.90344,5.13274 -0.1471,0.49466 -0.0383,1.51893 0.24173,2.27615 0.35516,0.96029 0.21756,1.82185 -0.45484,2.84807 -0.53022,0.80921 -0.86555,1.5002 -0.74518,1.53553 0.12038,0.0353 1.77494,0.14104 3.67681,0.23492 3.50064,0.17281 5.23614,0.98529 5.23614,2.45133 0,1.03958 -1.89794,2.04625 -3.85793,2.04625 -1.79179,0 -1.82223,0.19977 -0.45667,2.99796 0.8153,1.67065 1.51244,2.20472 3.41885,2.6191 4.22304,0.91792 4.16859,0.88009 3.04837,2.11792 -0.55471,0.61295 -2.00798,1.27505 -3.22947,1.47134 -1.33584,0.21465 -2.53411,0.860815 -3.00682,1.621385 -0.43224,0.69547 -1.14765,1.12568 -1.58979,0.95601 -1.06404,-0.4083 -1.59503,1.73584 -0.88946,3.59163 0.41605,1.0943 0.33894,1.53839 -0.31039,1.78756 -0.47518,0.18235 -1.10273,0.18397 -1.39456,0.004 -0.70223,-0.43399 -3.12438,1.28779 -3.12438,2.22098 0,1.13487 -2.08816,2.65504 -4.60838,3.35487 -2.91477,0.80939 -2.99544,0.80483 -3.37752,-0.19085 z"
         style="fill:#800000;stroke-width:4.79674"
         inkscape:label="#regial-metropolitana-de-bh" />
      <path
         inkscape:label="zona-da-mata"
         id="zona-da-mata"
         d="m 124.43763,133.49786 c 0,-0.83104 0.41296,-1.16689 1.43483,-1.16689 1.64449,0 2.60111,-1.66818 1.25322,-2.18542 -1.31009,-0.50272 -1.0814,-2.20288 0.42266,-3.14217 1.2161,-0.75947 1.23698,-0.87413 0.28583,-1.56963 -0.94712,-0.69255 -0.92777,-0.77602 0.25139,-1.08438 0.70262,-0.18374 1.96051,-0.0744 2.79529,0.24299 1.76643,0.67159 2.08807,0.46982 2.18192,-1.36873 0.0405,-0.79308 0.6803,-1.65529 1.54996,-2.08872 1.9012,-0.94753 2.51406,-2.61906 1.41895,-3.87009 -1.213,-1.3857 -1.57882,-4.08344 -0.69769,-5.14513 0.41187,-0.49629 1.03452,-1.47531 1.38366,-2.17562 0.37684,-0.75587 1.2869,-1.3234 2.23953,-1.39662 0.8826,-0.0678 2.20207,-0.44303 2.93214,-0.83375 1.1831,-0.63318 1.21921,-0.77097 0.33215,-1.26739 -1.25706,-0.70349 -1.3377,-3.49535 -0.10096,-3.49535 0.49187,0 1.23132,-0.53963 1.64321,-1.19919 0.43988,-0.70435 1.39827,-1.19918 2.32259,-1.19918 0.86553,0 2.29883,-0.570395 3.18511,-1.267545 0.88628,-0.69715 1.77474,-1.10421 1.97436,-0.90459 0.19962,0.19962 0.72505,0.0624 1.16761,-0.30486 0.59187,-0.49121 0.80466,-0.48983 0.80466,0.005 0,0.37015 0.65206,0.673 1.44901,0.673 0.79696,0 1.56123,0.33664 1.69838,0.74808 0.18443,0.553315 0.81894,0.44135 2.43692,-0.43 2.13738,-1.15105 2.20647,-1.15222 3.01166,-0.0511 0.51021,0.69775 1.20277,0.981705 1.8183,0.7455 0.63788,-0.24478 1.68972,0.251255 2.93477,1.383985 l 1.94056,1.7655 -2.5911,0.0176 c -3.29834,0.0224 -4.10435,0.86468 -4.10435,4.28919 0,3.19122 -1.91604,6.80237 -3.88207,7.3165 -0.84733,0.22158 -1.1508,0.64355 -0.91142,1.26734 0.19736,0.51434 0.1079,0.93516 -0.19881,0.93516 -0.30672,0 -0.86215,1.14672 -1.23429,2.54827 -0.37214,1.40154 -1.09976,3.45032 -1.61693,4.55283 -0.78977,1.68365 -0.80839,2.08611 -0.1163,2.51384 0.63189,0.39053 0.47925,0.64367 -0.65465,1.08566 -1.34911,0.52589 -4.87547,2.01999 -9.12346,3.86557 -0.90688,0.394 -1.64888,0.95336 -1.64888,1.24301 0,0.28965 -0.38892,0.20387 -0.86427,-0.19064 -1.1655,-0.96727 -9.78638,-0.21157 -13.97564,1.2251 -3.08889,1.05931 -3.14785,1.05768 -3.14785,-0.0874 z"
         style="fill:#ffeeaa;stroke-width:4.79674" />
      <path
         id="vale-do-rio-doce"
         d="m 167.60826,100.55259 c -0.35298,-0.659555 -1.03702,-1.199185 -1.52008,-1.199185 -0.48306,0 -0.87829,-0.27931 -0.87829,-0.62069 0,-0.42083 -0.38614,-0.41403 -1.19918,0.0211 -1.23322,0.66 -1.41467,0.46107 -1.23054,-1.34908 0.13676,-1.34447 0.024,-1.33045 -3.23468,0.40221 -1.50144,0.79833 -2.72989,1.20305 -2.72989,0.89939 0,-0.30366 -0.67454,-0.55211 -1.49898,-0.55211 -0.82444,0 -1.49898,-0.30129 -1.49898,-0.66952 0,-0.38281 -0.53382,-0.52993 -1.24654,-0.34355 -0.82863,0.21669 -1.15252,0.0809 -0.96608,-0.40491 0.18884,-0.49211 -0.51307,-0.76253 -2.14849,-0.82775 -1.33592,-0.0533 -2.62483,-0.41379 -2.86423,-0.80116 -0.23941,-0.38736 -0.72341,-0.52622 -1.07557,-0.30858 -0.74979,0.4634 -2.85603,-2.47274 -2.23014,-3.10886 0.23323,-0.23704 1.28159,-0.72509 2.32969,-1.08457 1.65511,-0.56766 1.91378,-0.94209 1.96756,-2.84806 0.0514,-1.82359 -0.15122,-2.20991 -1.19919,-2.2858 -2.43773,-0.17654 -2.67909,-0.22742 -3.10657,-0.65489 -0.23712,-0.23713 -1.06561,-0.27189 -1.84109,-0.0772 -1.36651,0.34296 -2.07482,-0.65376 -0.77297,-1.08771 0.42377,-0.14126 0.4509,-0.70994 0.0811,-1.69885 -0.6525,-1.74468 -0.53952,-3.16099 0.46534,-5.83355 0.59022,-1.56978 1.06416,-1.94868 2.43742,-1.94868 2.01631,0 2.76466,-0.90672 1.75371,-2.12483 -0.88933,-1.07159 0.19011,-2.6719 1.80225,-2.6719 0.56871,0 1.65623,-0.53964 2.4167,-1.19919 0.76046,-0.65955 1.6112,-1.19918 1.89052,-1.19918 0.27931,0 0.50784,-0.37586 0.50784,-0.83524 0,-0.70431 1.77006,-1.92558 2.06874,-1.42735 0.0541,0.0902 0.98249,1.31074 2.06314,2.71228 2.39954,3.11208 3.97516,3.27336 6.14824,0.62932 1.34206,-1.63292 1.72887,-1.81121 2.51466,-1.15906 0.73698,0.61164 0.79364,1.06701 0.2745,2.2064 -0.89196,1.95764 0.26922,3.26998 2.89333,3.26998 1.74739,0 2.02516,0.20075 2.02516,1.46359 0,1.66789 1.01391,2.55907 1.90158,1.6714 0.32885,-0.32885 1.11221,-0.46342 1.74079,-0.29904 0.84205,0.2202 1.05373,0.65401 0.80422,1.64815 -0.22694,0.90417 -0.0272,1.46879 0.60534,1.71153 0.5192,0.19923 0.94399,0.79915 0.94399,1.33315 0,0.80054 -0.42087,0.89981 -2.39837,0.56571 -1.89494,-0.32015 -2.39837,-0.22003 -2.39837,0.47696 0,0.48519 0.53639,1.02243 1.19197,1.19386 0.65558,0.17144 1.46438,0.94491 1.79734,1.71882 0.33296,0.7739 0.91414,1.83523 1.2915,2.35851 0.80057,1.11011 0.16733,5.5702 -0.71355,5.02579 -0.31311,-0.19352 -0.5693,-0.0552 -0.5693,0.30741 0,0.36259 -0.5714,1.43213 -1.26979,2.37675 -0.69839,0.94463 -1.0986,1.9945 -0.88936,2.33307 0.20924,0.33856 -0.1201,0.9713 -0.73186,1.40608 -0.61177,0.43478 -1.29596,1.53251 -1.52044,2.439405 -0.48195,1.94712 -1.29326,2.11417 -2.18406,0.44969 z"
         style="fill:#0000ff;stroke-width:4.79674"
         inkscape:label="#vale-do-rio-doce" />
      <path
         id="vale-do-mucuri"
         d="m 170.71843,73.421035 c 0.15822,-1.13785 -0.20136,-1.44296 -2.29662,-1.94867 -2.53797,-0.61257 -2.84988,-1.00513 -2.26437,-2.8499 0.37675,-1.18703 -1.00068,-2.84623 -2.36287,-2.84623 -0.49576,0 -1.47777,0.80945 -2.18223,1.79878 -0.70446,0.98933 -1.64755,1.79878 -2.09575,1.79878 -1.17962,0 -4.60112,-4.33563 -3.94181,-4.99495 0.29858,-0.29857 0.39479,-1.45539 0.21381,-2.5707 -0.21138,-1.30257 -0.0866,-2.02783 0.34897,-2.02783 0.37292,0 0.67804,0.26033 0.67804,0.5785 0,0.31817 0.5429,0.86904 1.20644,1.22416 0.98055,0.52478 1.58617,0.35603 3.23451,-0.90121 1.11544,-0.85079 2.35567,-2.33779 2.75607,-3.30444 0.69695,-1.68258 0.79756,-1.72159 2.35851,-0.91439 2.10883,1.09052 3.91234,0.80371 4.02146,-0.63953 0.0474,-0.62679 0.11484,-1.6118 0.1499,-2.18891 0.0351,-0.57711 0.47795,-1.04929 0.98421,-1.04929 0.95934,0 3.89892,-1.6803 4.55354,-2.60287 0.20762,-0.29259 1.91763,-0.6225 3.80001,-0.73313 3.03196,-0.17818 3.373,-0.0848 2.98854,0.81795 -0.23869,0.56049 -0.66516,2.58415 -0.94773,4.49702 l -0.51375,3.47794 3.29354,3.31995 c 1.81145,1.82598 3.29354,3.53729 3.29354,3.80292 0,0.82598 -1.87371,1.25113 -3.86639,0.8773 -1.34245,-0.25185 -2.13876,-0.078 -2.69109,0.58752 -0.87393,1.05302 -2.4364,1.27467 -2.4364,0.34562 0,-0.75802 -0.64622,-0.75063 -1.79877,0.0206 -0.7863,0.52614 -0.76745,0.70293 0.14989,1.40601 1.37056,1.05042 1.33371,1.53349 -0.0886,1.16155 -1.697,-0.44378 -3.37931,0.70829 -4.50821,3.08726 -1.12828,2.37768 -2.32272,2.82945 -2.03639,0.77022 z"
         style="fill:#800080;stroke-width:4.79674"
         inkscape:label="#vale-do-mucuri" />
      <path
         id="jequitinhonha"
         d="m 132.39852,77.755425 c -0.73303,-0.29493 -2.28447,-0.41438 -3.44765,-0.26546 -2.37112,0.30358 -2.90273,-0.59333 -0.68203,-1.15069 1.49527,-0.37529 2.42904,-1.85556 1.80621,-2.86332 -0.19932,-0.3225 -0.69174,-0.45998 -1.09426,-0.30552 -0.40254,0.15447 -1.04473,-0.22011 -1.4271,-0.83238 -0.57672,-0.92347 -0.46998,-1.27099 0.62614,-2.03875 0.72675,-0.50903 1.16696,-0.92551 0.97825,-0.92551 -0.18872,0 0.83051,-1.24248 2.26495,-2.76106 1.43444,-1.51859 2.60807,-3.23936 2.60807,-3.82394 0,-0.95933 1.68312,-2.92523 2.19073,-2.55878 0.7386,0.5332 2.60601,-0.004 2.60601,-0.74949 0,-0.49467 0.43359,-0.89939 0.96353,-0.89939 0.61015,0 0.83696,-0.32987 0.61842,-0.89939 -0.19676,-0.51275 -0.0129,-0.89939 0.42761,-0.89939 0.42501,0 1.52568,-0.94436 2.44593,-2.09857 0.92025,-1.15422 2.02542,-2.09858 2.45594,-2.09858 0.43051,0 1.12435,-0.77172 1.54186,-1.71495 0.41751,-0.94322 1.92131,-2.45021 3.34176,-3.34885 2.20799,-1.39688 2.49352,-1.80046 1.96822,-2.782 -0.56287,-1.05173 -0.38873,-1.14808 2.07503,-1.14808 1.70907,0 2.86443,-0.31265 3.16944,-0.85767 0.26399,-0.47171 1.0007,-0.80899 1.63714,-0.74949 0.78338,0.0732 1.27509,-0.37602 1.52221,-1.3908 0.25473,-1.04601 0.83549,-1.55432 1.9219,-1.68211 1.18713,-0.13964 1.64199,-0.60873 1.91529,-1.97523 0.26068,-1.30345 0.9054,-2.02064 2.3645,-2.63029 1.10334,-0.461 2.35997,-1.2646 2.79249,-1.78576 0.45232,-0.54501 1.25029,-0.80034 1.8783,-0.60102 0.60054,0.19061 1.68751,0.0278 2.4155,-0.36182 1.83549,-0.98233 5.62717,-0.94443 6.84761,0.0684 0.55838,0.46341 2.12881,0.9158 3.48986,1.00531 1.36104,0.0895 2.74444,0.51245 3.07422,0.93987 0.32977,0.42743 1.6114,1.25067 2.84806,1.82943 1.38798,0.64959 2.24847,1.46952 2.24847,2.14249 0,1.60209 -3.62527,6.07041 -5.51271,6.79469 -1.14678,0.44006 -1.79421,3.48715 -0.95623,4.50039 0.91722,1.10905 -1.02981,0.97105 -2.81647,-0.19962 -0.93447,-0.61228 -1.93669,-0.79417 -2.82409,-0.51252 -0.75656,0.24012 -2.13408,0.41502 -3.06116,0.38866 -0.94755,-0.0269 -1.83013,0.32873 -2.0157,0.81232 -0.18156,0.47314 -0.67293,0.86025 -1.09193,0.86025 -0.419,0 -1.09772,0.40472 -1.50825,0.89939 -0.41053,0.49466 -1.24788,0.89938 -1.86077,0.89938 -1.21446,0 -2.15548,2.435 -1.40826,3.64403 0.44923,0.72688 -1.41619,0.57788 -4.31721,-0.34483 -1.07772,-0.34278 -1.41201,-0.0745 -2.02727,1.62697 -1.03919,2.87383 -5.97589,5.52042 -5.97589,3.20371 0,-1.40394 -1.31897,-1.80254 -2.15976,-0.65269 -0.46657,0.63807 -0.63395,1.78842 -0.41762,2.87007 0.27805,1.39026 0.16784,1.73645 -0.47946,1.50611 -1.0826,-0.38522 -2.93787,0.56578 -2.94318,1.50866 -0.0111,1.97819 -7.14355,4.70998 -8.77095,3.35936 -0.51954,-0.43118 -1.2793,0.006 -2.67413,1.53885 -1.139,1.25167 -2.3414,2.03024 -2.89441,1.87416 -0.55401,-0.15635 -1.54722,0.48975 -2.39692,1.55925 -1.1975,1.50726 -1.3284,2.0224 -0.74949,2.94939 1.17706,1.88477 0.8859,2.09909 -1.53075,1.12677 z"
         style="fill:#ff00ff;stroke-width:4.79674"
         inkscape:label="#jequitinhonha" />
      <path
         id="noroeste-de-minas"
         d="m 89.569696,76.141605 c -0.11451,-0.26254 -2.09692,-1.41934 -4.40535,-2.57067 -2.30843,-1.15132 -4.28708,-2.29686 -4.39701,-2.54564 -0.10993,-0.24877 -0.66665,-0.45232 -1.23717,-0.45232 -0.62892,0 -1.36148,-0.8262 -1.86073,-2.09857 -0.84223,-2.14653 -1.43787,-2.56801 -2.10461,-1.4892 -0.60292,0.97555 -1.49294,0.0502 -1.49294,-1.55228 0,-0.80945 0.3124,-1.97197 0.69422,-2.58336 0.98879,-1.58329 0.21726,-3.06925 -1.59361,-3.06925 -2.80886,0 -2.42147,-1.61987 1.21676,-5.08782 2.57618,-2.45561 3.28698,-3.47613 2.81729,-4.04484 -0.3455,-0.41833 -0.87182,-1.70497 -1.16959,-2.85918 -0.30801,-1.19388 -1.11134,-2.38318 -1.86345,-2.75875 -1.98055,-0.98902 -2.02421,-1.12504 -1.06333,-3.31284 0.48865,-1.1126 1.03257,-2.71541 1.2087,-3.56181 0.35235,-1.69318 1.74104,-2.57508 5.59904,-3.55572 2.86064,-0.72712 3.25513,-1.93015 1.64518,-5.01708 -1.03511,-1.98474 -1.15729,-3.37912 -0.2961,-3.37912 0.76707,0 0.78124,-1.97688 0.0196,-2.73849 -0.79644,-0.79644 -0.0728,-3.25743 0.95781,-3.25743 0.46068,0 1.33783,0.3124 1.94922,0.69422 1.97579,1.2339 3.16056,0.21884 2.89098,-2.47687 -0.13179,-1.31798 -0.11012,-2.52583 0.0482,-2.68411 0.5238,-0.52379 2.52848,0.89515 2.52848,1.78969 0,0.96678 0.0985,1.01028 2.69817,1.19112 0.98933,0.0688 1.9637,-0.13113 2.16529,-0.44433 0.20157,-0.3132 0.50873,-0.0256 0.68257,0.63917 0.18785,0.71834 -0.14326,1.70167 -0.8162,2.42399 -0.62275,0.66844 -1.13227,1.49644 -1.13227,1.84001 0,0.84551 1.39249,0.79111 2.27238,-0.0888 1.1162,-1.1162 2.52023,-1.08947 3.67977,0.0701 0.937884,0.93788 0.955344,1.13072 0.14843,1.6397 -1.14646,0.72317 -0.42477,2.00162 1.129904,2.00162 0.92229,0 1.16381,0.42026 1.16381,2.02516 0,1.11384 -0.42444,2.37741 -0.94321,2.80795 -0.51876,0.43054 -1.484984,1.84476 -2.147154,3.14272 -0.88797,1.74056 -1.38003,2.18383 -1.87488,1.68899 -1.1078,-1.10781 -2.18395,-0.76285 -2.58324,0.82805 -0.32991,1.31447 -0.85888,1.72473 -2.07552,1.60977 -0.18167,-0.0172 -0.64408,0.47122 -1.02759,1.08531 -0.6134,0.98221 -0.46548,1.17147 1.22971,1.57341 1.05984,0.25129 2.12128,0.40818 2.35877,0.34864 0.23748,-0.0595 0.70913,0.40995 1.0481,1.04332 0.44939,0.83969 0.40059,1.36729 -0.18018,1.94806 -0.94775,0.94774 -0.63881,2.28476 0.52793,2.28476 0.45558,0 1.11223,0.53047 1.45921,1.17882 0.34699,0.64835 1.72811,1.47427 3.069174,1.83538 1.83342,0.49368 2.34891,0.88944 2.07803,1.59534 -0.19814,0.51633 -0.0859,1.26936 0.24944,1.67341 0.4156,0.50076 0.38924,1.36702 -0.0828,2.7211 -0.62693,1.79843 -0.55899,2.09457 0.71772,3.12838 0.77797,0.62996 1.15574,1.32485 0.84263,1.54995 -0.31216,0.22442 -0.63387,1.50097 -0.7149,2.83678 -0.13831,2.27998 -0.019,2.47516 1.94868,3.18666 1.1528,0.41686 2.096,1.13427 2.096,1.59424 0,1.14719 -3.04864,3.88281 -4.32709,3.88281 -0.57288,0 -1.48809,0.68144 -2.03381,1.51431 -0.68978,1.05275 -1.333644,1.40594 -2.112394,1.15878 -0.78965,-0.25063 -1.12019,-0.0591 -1.12019,0.64926 0,0.78433 -0.34425,0.91839 -1.56892,0.61102 -3.81922,-0.95856 -5.07611,-1.04115 -5.86618,-0.38545 -0.46341,0.38461 -0.93626,0.48447 -1.05078,0.22193 z"
         style="fill:#ff8080;stroke-width:4.79674"
         inkscape:label="#noroeste-de-minas" />
      <path
         id="norte"
         d="m 111.33007,67.555065 c -0.77853,-0.64858 -2.27601,-1.17923 -3.32772,-1.17923 -2.6986,0 -3.36791,-0.91026 -2.94391,-4.0037 0.27641,-2.01661 0.11575,-2.88172 -0.70322,-3.78667 -0.89209,-0.98575 -0.94977,-1.44258 -0.3615,-2.86279 1.01001,-2.43838 -0.54689,-6.04551 -2.80589,-6.5009 -2.723624,-0.54906 -4.838544,-2.79629 -4.727764,-5.02353 0.0951,-1.91295 -0.42372,-2.52247 -2.76513,-3.24822 -0.99143,-0.30731 -0.98135,-0.411 0.1499,-1.54224 0.66703,-0.66704 1.21278,-1.44519 1.21278,-1.72923 0,-0.28405 0.64966,-0.39226 1.44369,-0.24047 1.22836,0.23482 1.80965,-0.28722 3.897354,-3.50013 1.34951,-2.07685 2.44998,-4.05972 2.44547,-4.40637 -0.0247,-1.89946 -0.84212,-3.32843 -1.90404,-3.32843 -1.134504,0 -1.130544,-0.0537 0.12128,-1.64511 l 1.29404,-1.64511 -1.29623,-0.306 -1.296244,-0.306 1.394794,-1.26506 c 0.76714,-0.69578 3.28351,-2.29196 5.59194,-3.54708 2.30842,-1.25512 5.81603,-3.48746 7.79469,-4.96075 5.15797,-3.8405998 6.98487,-4.4895998 11.24589,-3.9950498 l 3.56059,0.41325 -0.39556,2.6377598 -0.39555,2.63776 2.88558,1.25315 c 2.48128,1.07757 3.13762,1.14951 4.68436,0.51348 3.83598,-1.57737 5.7728,-1.38746 9.59348,0.94065 7.08662,4.31822 9.39266,5.24758 13.36915,5.38795 3.23736,0.11427 4.11341,0.40468 6.14447,2.03689 4.25464,3.41911 5.18203,7.26224 2.04069,8.45657 -0.78506,0.29848 -2.0436,1.48322 -2.79675,2.63275 -0.75317,1.14954 -1.83832,2.21284 -2.41146,2.36291 -0.57313,0.15006 -1.30845,0.97349 -1.63404,1.82984 -0.32558,0.85635 -1.07082,1.56558 -1.65609,1.57607 -0.58527,0.0105 -1.58788,0.41521 -2.22802,0.89939 -0.64013,0.48418 -2.05667,0.88032 -3.14786,0.88032 -1.71102,0 -1.98397,0.20411 -1.98397,1.48358 0,1.03918 -0.53426,1.75987 -1.78357,2.40591 -0.98097,0.50728 -2.12769,1.57689 -2.54827,2.37692 -0.42058,0.80004 -2.51658,2.97092 -4.65779,4.8242 -2.1412,1.85327 -4.11078,3.75857 -4.37683,4.23398 -0.26606,0.47542 -1.1475,0.8644 -1.95876,0.8644 -1.1651,0 -1.75723,0.58901 -2.81826,2.80339 -1.7519,3.65622 -2.59807,3.84686 -3.51345,0.79156 -1.1516,-3.84369 -4.72512,-6.06803 -4.72512,-2.94115 0,0.65043 -0.4257,1.34597 -0.94599,1.54562 -0.5203,0.19966 -1.64667,1.84287 -2.50305,3.65158 -1.41398,2.98638 -1.62968,3.18924 -2.3474,2.20771 -0.7539,-1.03102 -0.85451,-1.02056 -2.18243,0.22696 -1.71546,1.61158 -3.86038,1.64479 -5.72828,0.0887 z"
         style="fill:#000080;stroke-width:4.79674"
         inkscape:label="#norte" />
    </g>
  </g>
</svg>
